# xmcd database file
#
# Track frame offsets:
# 150
# 10022
# 24970
# 38811
# 52571
# 65521
# 79281
# 92852
# 105316
# 118266
# 131945
# 144274
# 155982
# 167825
# 179209
#
# Disc length: 2439 seconds
#
# Revision: 5
# Processed by: cddbd v1.4PL0 Copyright (c) Steve Scherf et al.
# Submitted via: CD-Runner 2003.05
#
DISCID=c909850f
DTITLE=Billie Holliday and others - Red White and Blue
DYEAR=1980
DGENRE=Blues
TTITLE0=Do You Know What It Means To Miss New Orleans
TTITLE1=West End Blues
TTITLE2=Shreveport Blues
TTITLE3=Sad Night In Harlem
TTITLE4=Detroit Moan
TTITLE5=Delta Bound
TTITLE6=Arkansas Blues
TTITLE7=St. Louis Blues
TTITLE8=New Orleans Blues
TTITLE9=Gulf Coast Blues
TTITLE10=Mound Bayou
TTITLE11=Charleston Blues
TTITLE12=A Train
TTITLE13=Goin To Chicago
TTITLE14=Chicago
EXTD=Billie Holliday, Ethel Waters, Lillian Glinn, Ivie Anderson, Victoria Spivey, Rosetta Howard, Mildred Bailey, Bessie Smith, Blue Lou Barker, Ella Fitzgerald, Helen Humes, Bertha Chippie Hill, Betty Roche, Julia Lee,  Lil Armstrong and Blossom Seeley
EXTT0=
EXTT1=
EXTT2=
EXTT3=
EXTT4=
EXTT5=
EXTT6=
EXTT7=
EXTT8=
EXTT9=
EXTT10=
EXTT11=
EXTT12=
EXTT13=
EXTT14=
PLAYORDER=
